# xmcd
#
# Track frame offsets:
#	150
#	13255
#	24287
#	38895
#	54635
#	69347
#	81410
#	93705
#	103950
#	116125
#	128132
#	141557
#	156500
#	168784
#	179430
#	193207
#	205485
#	216350
#	226292
#	239284
#	254947
#	266257
#	279620
#	292265
#	305910
#
# Disc length: 4253 seconds
#
# Revision: 0
# Processed by: cddbd v1.5.2PL0 Copyright (c) Steve Scherf et al.
# Submitted via: EZCDAudioConverter 2.0.5.1
#
DISCID=97109b19
DTITLE=Artistes varies - Country Quebec - Les pionniers et les origines 1925-1
DTITLE=955 - cd 1
DYEAR=2003
DGENRE=Western
TTITLE0=Willie Lamothe - Je chante a cheval
TTITLE1=Marcel Martel - La chaine de nos coeurs
TTITLE2=Paul Brunelle - Mon enfant, je te pardonne (When It's Springtime in th
TTITLE2=e Rockies)
TTITLE3=Suzanne Gadbois - Dans l'ouest canadien
TTITLE4=Ludovic Huot - Rendez-moi mes montagnes (Take Me Back to my Boots and 
TTITLE4=Saddle)
TTITLE5=Jean Lalonde - L' amour perdu ne revient plus (Tumbling Tumbleweeds)
TTITLE6=Lionel Parent - Adieu (Goodbye, Little Darling, Goodbye)
TTITLE7=Roland Lebrun - Retour au petit foyer
TTITLE8=Willie Lamothe - Je suis un cowboy canadien
TTITLE9=Willie Lamothe - L'amour d'une cowgirl
TTITLE10=Willie Lamothe - Quand je reverrai ma province
TTITLE11=Mary Travers Bolduc - Les belles-meres
TTITLE12=Paul Brunelle - Femmes, que vous etes jolies
TTITLE13=Marcel Martel - Hello central
TTITLE14=Noella Therrien - Mon chevalier
TTITLE15=Lionel parent - Reve de soldat (Cowboy Serenade)
TTITLE16=Roland Lebrun - La vie d'un cowboy
TTITLE17=Georges Caouette - Complainte d'un cowboy
TTITLE18=Jimmy Debate - Mon p'tit Jimmy
TTITLE19=Tony Villemure - Allo allo mes amis
TTITLE20=Willie Lamothe - Ne me delaisse pas
TTITLE21=Lionel Parent - Reste pres de moi
TTITLE22=Roland Tetrault - Rose de la prairie
TTITLE23=Wendell Hall - It Ain't Gonna Rain No Mo'
TTITLE24=Gaston Saint-Jacques - A tant plu (Y mouillera p'us pantoute) (It Ain
TTITLE24='t Gonna Rain No Mo')
EXTD=
EXTT0=
EXTT1=
EXTT2=
EXTT3=
EXTT4=
EXTT5=
EXTT6=
EXTT7=
EXTT8=
EXTT9=
EXTT10=
EXTT11=
EXTT12=
EXTT13=
EXTT14=
EXTT15=
EXTT16=
EXTT17=
EXTT18=
EXTT19=
EXTT20=
EXTT21=
EXTT22=
EXTT23=
EXTT24=
PLAYORDER=
